<svg width="48" height="49" viewBox="0 0 48 49" fill="none" xmlns="http://www.w3.org/2000/svg">
<g id="fi-rr-book-alt" clip-path="url(#clip0_34_89)">
<path id="Vector" d="M44.4 5.12595C43.2757 4.18581 41.9581 3.50473 40.541 3.13108C39.1238 2.75743 37.6417 2.70037 36.2 2.96395L28.556 4.35195C26.7912 4.67604 25.1866 5.584 24 6.92995C22.8103 5.58168 21.2011 4.67351 19.432 4.35195L11.8 2.96395C10.3583 2.70014 8.87626 2.75645 7.45875 3.1289C6.04124 3.50135 4.72293 4.18084 3.59713 5.11926C2.47133 6.05768 1.56557 7.23209 0.943964 8.55937C0.322356 9.88664 9.76249e-05 11.3343 0 12.8L0 34.386C0.000114912 36.7276 0.821953 38.9949 2.32227 40.7927C3.82258 42.5905 5.90622 43.8048 8.21 44.224L20.782 46.51C22.9099 46.8966 25.0901 46.8966 27.218 46.51L39.8 44.224C42.1019 43.8027 44.1833 42.5875 45.6816 40.7899C47.1799 38.9923 48.0003 36.7261 48 34.386V12.8C48.0009 11.3348 47.6788 9.88755 47.0565 8.56114C46.4343 7.23473 45.5273 6.06182 44.4 5.12595ZM22 42.656C21.832 42.632 21.664 42.604 21.496 42.574L8.926 40.29C7.54353 40.0384 6.29319 39.3097 5.39298 38.2307C4.49276 37.1518 3.99979 35.7911 4 34.386V12.8C4 11.2087 4.63214 9.68253 5.75736 8.55731C6.88258 7.43209 8.4087 6.79995 10 6.79995C10.3622 6.80082 10.7236 6.83361 11.08 6.89795L18.72 8.29795C19.6392 8.46616 20.4705 8.95089 21.0697 9.66804C21.6688 10.3852 21.998 11.2895 22 12.224V42.656ZM44 34.386C44.0002 35.7911 43.5072 37.1518 42.607 38.2307C41.7068 39.3097 40.4565 40.0384 39.074 40.29L26.504 42.574C26.336 42.604 26.168 42.632 26 42.656V12.224C25.9999 11.2872 26.3285 10.3801 26.9287 9.66077C27.5288 8.94148 28.3624 8.45563 29.284 8.28795L36.926 6.88795C37.7914 6.73049 38.6809 6.76525 39.5314 6.98977C40.3819 7.21429 41.1727 7.62307 41.8476 8.18716C42.5226 8.75126 43.0653 9.45686 43.4372 10.254C43.8092 11.0511 44.0013 11.9203 44 12.8V34.386Z" fill="#217AFF"/>
</g>
<defs>
<clipPath id="clip0_34_89">
<rect width="48" height="48" fill="white" transform="translate(0 0.799999)"/>
</clipPath>
</defs>
</svg>
