<svg width="24" height="24" viewBox="0 0 24 24" fill="none" xmlns="http://www.w3.org/2000/svg">
<g id="fi-rs-lock" clip-path="url(#clip0_2_25)">
<g id="01 align center">
<path id="Vector" d="M19.0002 8V7C19.0002 5.14348 18.2627 3.363 16.9499 2.05025C15.6371 0.737494 13.8567 -3.8147e-06 12.0002 -3.8147e-06C10.1436 -3.8147e-06 8.36316 0.737494 7.05041 2.05025C5.73765 3.363 5.00015 5.14348 5.00015 7V8H2.00015V21C2.00015 21.7956 2.31622 22.5587 2.87883 23.1213C3.44144 23.6839 4.2045 24 5.00015 24H19.0002C19.7958 24 20.5589 23.6839 21.1215 23.1213C21.6841 22.5587 22.0002 21.7956 22.0002 21V8H19.0002ZM7.00015 7C7.00015 5.67391 7.52694 4.40214 8.46462 3.46446C9.4023 2.52678 10.6741 2 12.0002 2C13.3262 2 14.598 2.52678 15.5357 3.46446C16.4734 4.40214 17.0002 5.67391 17.0002 7V8H7.00015V7ZM20.0002 21C20.0002 21.2652 19.8948 21.5196 19.7073 21.7071C19.5197 21.8946 19.2654 22 19.0002 22H5.00015C4.73494 22 4.48058 21.8946 4.29305 21.7071C4.10551 21.5196 4.00015 21.2652 4.00015 21V10H20.0002V21Z" fill="#217AFF"/>
<path id="Vector_2" d="M13.0002 13.9997H11.0002V17.9997H13.0002V13.9997Z" fill="#217AFF"/>
</g>
</g>
<defs>
<clipPath id="clip0_2_25">
<rect width="24" height="24" fill="white"/>
</clipPath>
</defs>
</svg>
