<svg width="39" height="38" viewBox="0 0 39 38" fill="none" xmlns="http://www.w3.org/2000/svg">
<g id="fi-rs-user" clip-path="url(#clip0_6_23)">
<g id="01 align center">
<path id="Vector" d="M33.9696 37.819H30.8181V30.0253C30.8168 28.8137 30.3255 27.652 29.452 26.7953C28.5784 25.9385 27.394 25.4566 26.1586 25.4554H13.417C12.1816 25.4566 10.9972 25.9385 10.1236 26.7953C9.25004 27.652 8.75872 28.8137 8.75747 30.0253V37.819H5.60596V30.0253C5.60846 27.9943 6.43221 26.0472 7.89652 24.611C9.36083 23.1749 11.3461 22.367 13.417 22.3645H26.1586C28.2294 22.367 30.2147 23.1749 31.679 24.611C33.1433 26.0472 33.9671 27.9943 33.9696 30.0253V37.819Z" fill="#908888"/>
<path id="Vector_2" d="M19.7877 19.2726C17.9177 19.2726 16.0898 18.7287 14.535 17.7098C12.9802 16.6909 11.7684 15.2427 11.0528 13.5484C10.3372 11.854 10.15 9.98956 10.5148 8.19082C10.8796 6.39209 11.7801 4.73985 13.1023 3.44303C14.4245 2.14622 16.1092 1.26308 17.9432 0.905289C19.7772 0.547499 21.6782 0.73113 23.4058 1.43296C25.1334 2.13479 26.61 3.3233 27.6488 4.84819C28.6877 6.37308 29.2422 8.16587 29.2422 9.99984C29.2397 12.4584 28.2428 14.8155 26.4703 16.5539C24.6978 18.2924 22.2944 19.2701 19.7877 19.2726V19.2726ZM19.7877 3.81802C18.5411 3.81802 17.3224 4.18058 16.2859 4.85985C15.2494 5.53912 14.4415 6.50458 13.9644 7.63416C13.4874 8.76374 13.3626 10.0067 13.6058 11.2059C13.849 12.405 14.4493 13.5065 15.3308 14.371C16.2123 15.2356 17.3354 15.8244 18.558 16.0629C19.7807 16.3014 21.048 16.179 22.1997 15.7111C23.3515 15.2432 24.3359 14.4509 25.0285 13.4343C25.721 12.4177 26.0907 11.2225 26.0907 9.99984C26.0907 8.36032 25.4266 6.78795 24.2446 5.62864C23.0625 4.46932 21.4593 3.81802 19.7877 3.81802Z" fill="#908888"/>
</g>
</g>
<defs>
<clipPath id="clip0_6_23">
<rect width="37.8182" height="37.0909" fill="white" transform="translate(0.878723 0.727203)"/>
</clipPath>
</defs>
</svg>
