<svg width="24" height="24" viewBox="0 0 24 24" fill="none" xmlns="http://www.w3.org/2000/svg">
<g id="fi-rr-address-book" clip-path="url(#clip0_190_256)">
<path id="Vector" d="M18.0001 0H8.00007C7.0283 0.00127838 6.07797 0.285705 5.26528 0.818499C4.45259 1.35129 3.81277 2.10936 3.42407 3H2.00007C1.73485 3 1.4805 3.10536 1.29296 3.29289C1.10543 3.48043 1.00007 3.73478 1.00007 4C1.00007 4.26522 1.10543 4.51957 1.29296 4.70711C1.4805 4.89464 1.73485 5 2.00007 5H3.00007V7H2.00007C1.73485 7 1.4805 7.10536 1.29296 7.29289C1.10543 7.48043 1.00007 7.73478 1.00007 8C1.00007 8.26522 1.10543 8.51957 1.29296 8.70711C1.4805 8.89464 1.73485 9 2.00007 9H3.00007V11H2.00007C1.73485 11 1.4805 11.1054 1.29296 11.2929C1.10543 11.4804 1.00007 11.7348 1.00007 12C1.00007 12.2652 1.10543 12.5196 1.29296 12.7071C1.4805 12.8946 1.73485 13 2.00007 13H3.00007V15H2.00007C1.73485 15 1.4805 15.1054 1.29296 15.2929C1.10543 15.4804 1.00007 15.7348 1.00007 16C1.00007 16.2652 1.10543 16.5196 1.29296 16.7071C1.4805 16.8946 1.73485 17 2.00007 17H3.00007V19H2.00007C1.73485 19 1.4805 19.1054 1.29296 19.2929C1.10543 19.4804 1.00007 19.7348 1.00007 20C1.00007 20.2652 1.10543 20.5196 1.29296 20.7071C1.4805 20.8946 1.73485 21 2.00007 21H3.42407C3.81277 21.8906 4.45259 22.6487 5.26528 23.1815C6.07797 23.7143 7.0283 23.9987 8.00007 24H18.0001C19.3257 23.9984 20.5965 23.4711 21.5338 22.5338C22.4712 21.5964 22.9985 20.3256 23.0001 19V5C22.9985 3.6744 22.4712 2.40356 21.5338 1.46622C20.5965 0.528882 19.3257 0.00158786 18.0001 0V0ZM21.0001 19C21.0001 19.7956 20.684 20.5587 20.1214 21.1213C19.5588 21.6839 18.7957 22 18.0001 22H8.00007C7.20442 22 6.44136 21.6839 5.87875 21.1213C5.31614 20.5587 5.00007 19.7956 5.00007 19V5C5.00007 4.20435 5.31614 3.44129 5.87875 2.87868C6.44136 2.31607 7.20442 2 8.00007 2H18.0001C18.7957 2 19.5588 2.31607 20.1214 2.87868C20.684 3.44129 21.0001 4.20435 21.0001 5V19ZM13.0001 12C13.7957 12 14.5588 11.6839 15.1214 11.1213C15.684 10.5587 16.0001 9.79565 16.0001 9C16.0001 8.20435 15.684 7.44129 15.1214 6.87868C14.5588 6.31607 13.7957 6 13.0001 6C12.2044 6 11.4414 6.31607 10.8787 6.87868C10.3161 7.44129 10.0001 8.20435 10.0001 9C10.0001 9.79565 10.3161 10.5587 10.8787 11.1213C11.4414 11.6839 12.2044 12 13.0001 12V12ZM18.0001 18C18.0001 18.2652 17.8947 18.5196 17.7072 18.7071C17.5196 18.8946 17.2653 19 17.0001 19C16.7349 19 16.4805 18.8946 16.293 18.7071C16.1054 18.5196 16.0001 18.2652 16.0001 18C16.0001 17.2044 15.684 16.4413 15.1214 15.8787C14.5588 15.3161 13.7957 15 13.0001 15C12.2044 15 11.4414 15.3161 10.8787 15.8787C10.3161 16.4413 10.0001 17.2044 10.0001 18C10.0001 18.2652 9.89471 18.5196 9.70718 18.7071C9.51964 18.8946 9.26529 19 9.00007 19C8.73485 19 8.4805 18.8946 8.29296 18.7071C8.10543 18.5196 8.00007 18.2652 8.00007 18C8.21107 11.392 17.7911 11.394 18.0001 18Z" fill="#217AFF"/>
</g>
<defs>
<clipPath id="clip0_190_256">
<rect width="24" height="24" fill="white"/>
</clipPath>
</defs>
</svg>
