<svg width="48" height="48" viewBox="0 0 48 48" fill="none" xmlns="http://www.w3.org/2000/svg">
<g id="fi-sr-book-alt" clip-path="url(#clip0_34_234)">
<path id="Vector" d="M44.4 4.32595C43.2599 3.37468 41.9222 2.68924 40.4841 2.31943C39.046 1.94962 37.5436 1.9047 36.086 2.18795L32.558 3.05195C30.7169 3.38934 29.0524 4.36163 27.8541 5.7996C26.6559 7.23757 25.9998 9.05017 26 10.922V41.856C24.6737 42.05 23.3263 42.05 22 41.856V10.922C22.0066 9.06743 21.3657 7.26877 20.1878 5.83636C19.0099 4.40395 17.3689 3.42765 15.548 3.07595L11.8 2.16395C10.3583 1.90014 8.87626 1.95645 7.45875 2.3289C6.04124 2.70136 4.72293 3.38084 3.59713 4.31926C2.47133 5.25768 1.56557 6.43209 0.943964 7.75937C0.322356 9.08664 9.76249e-05 10.5343 0 12L0 33.586C0.000114912 35.9276 0.821953 38.1949 2.32227 39.9927C3.82258 41.7905 5.90622 43.0048 8.21 43.424L20.782 45.71C22.9099 46.0966 25.0901 46.0966 27.218 45.71L39.8 43.424C42.1019 43.0027 44.1833 41.7875 45.6816 39.9899C47.1799 38.1923 48.0003 35.9261 48 33.586V12C48.0009 10.5348 47.6788 9.08755 47.0565 7.76114C46.4343 6.43473 45.5273 5.26182 44.4 4.32595Z" fill="#217AFF"/>
</g>
<defs>
<clipPath id="clip0_34_234">
<rect width="48" height="48" fill="white"/>
</clipPath>
</defs>
</svg>
