<svg width="72" height="51" viewBox="0 0 72 51" fill="none" xmlns="http://www.w3.org/2000/svg">
<g clip-path="url(#clip0_80_1101)">
<path d="M26 0C20.8577 0 15.8309 1.49555 11.5552 4.29753C7.27951 7.0995 3.94702 11.0821 1.97914 15.7416C0.0112654 20.4011 -0.503621 25.5283 0.499594 30.4748C1.50281 35.4213 3.97907 39.965 7.61524 43.5312C11.2514 47.0975 15.8842 49.5261 20.9277 50.51C25.9712 51.4939 31.1989 50.989 35.9498 49.0589C40.7007 47.1289 44.7613 43.8605 47.6182 39.667C50.4751 35.4736 52 30.5434 52 25.5C52 18.737 49.2607 12.251 44.3848 7.46878C39.5088 2.6866 32.8956 0 26 0V0ZM26 46.75C21.7148 46.75 17.5257 45.5037 13.9627 43.1687C10.3996 40.8338 7.62252 37.515 5.98262 33.632C4.34272 29.7491 3.91365 25.4764 4.74966 21.3543C5.58568 17.2322 7.64923 13.4458 10.6794 10.474C13.7095 7.50212 17.5701 5.47825 21.7731 4.65831C25.976 3.83838 30.3324 4.2592 34.2915 5.86756C38.2506 7.47592 41.6344 10.1996 44.0152 13.6941C46.396 17.1887 47.6667 21.2971 47.6667 25.5C47.6667 31.1359 45.3839 36.5409 41.3207 40.526C37.2574 44.5112 31.7464 46.75 26 46.75Z" fill="#908888"/>
</g>
<g clip-path="url(#clip1_80_1101)">
<path d="M40.9701 44.8193H37.8186V37.0256C37.8173 35.8139 37.326 34.6523 36.4524 33.7955C35.5789 32.9387 34.3944 32.4569 33.1591 32.4557H20.4175C19.1821 32.4569 17.9976 32.9387 17.1241 33.7955C16.2505 34.6523 15.7592 35.8139 15.758 37.0256V44.8193H12.6064V37.0256C12.6089 34.9945 13.4327 33.0474 14.897 31.6113C16.3613 30.1751 18.3466 29.3672 20.4175 29.3647H33.1591C35.2299 29.3672 37.2152 30.1751 38.6795 31.6113C40.1438 33.0474 40.9676 34.9945 40.9701 37.0256V44.8193Z" fill="#908888"/>
<path d="M26.7885 26.2728C24.9186 26.2728 23.0907 25.7289 21.5359 24.71C19.9811 23.6911 18.7693 22.2429 18.0537 20.5485C17.3381 18.8542 17.1508 16.9897 17.5157 15.191C17.8805 13.3923 18.7809 11.74 20.1032 10.4432C21.4254 9.1464 23.11 8.26326 24.944 7.90547C26.778 7.54768 28.679 7.73131 30.4066 8.43314C32.1342 9.13497 33.6108 10.3235 34.6497 11.8484C35.6886 13.3733 36.2431 15.1661 36.2431 17C36.2406 19.4586 35.2437 21.8157 33.4711 23.5541C31.6986 25.2926 29.2953 26.2703 26.7885 26.2728ZM26.7885 10.8182C25.5419 10.8182 24.3233 11.1808 23.2868 11.86C22.2502 12.5393 21.4424 13.5048 20.9653 14.6343C20.4882 15.7639 20.3634 17.0069 20.6066 18.206C20.8498 19.4052 21.4501 20.5067 22.3316 21.3712C23.2131 22.2358 24.3362 22.8245 25.5589 23.0631C26.7815 23.3016 28.0489 23.1792 29.2006 22.7113C30.3523 22.2434 31.3367 21.4511 32.0293 20.4345C32.7219 19.4179 33.0916 18.2227 33.0916 17C33.0916 15.3605 32.4275 13.7881 31.2455 12.6288C30.0634 11.4695 28.4602 10.8182 26.7885 10.8182Z" fill="#908888"/>
</g>
<path d="M64.5 32L70.9952 22.25H58.0048L64.5 32Z" fill="#908888"/>
<defs>
<clipPath id="clip0_80_1101">
<rect width="52" height="51" fill="white"/>
</clipPath>
<clipPath id="clip1_80_1101">
<rect width="37.8182" height="37.0909" fill="white" transform="translate(7.87891 7.72729)"/>
</clipPath>
</defs>
</svg>
